# xmcd CD database file
#
# Track frame offsets:
#	150
#	20597
#	46211
#	78924
#	100726
#	135934
#	168176
#
# Disc length: 2834 seconds
#
# Revision: 3
# Processed by: cddbd v1.5.2PL0 Copyright (c) Steve Scherf et al.
# Submitted via: CDex 1.50
#
DISCID=450b1007
DTITLE=Bruce Springsteen - The Wild, The Innocent and The E Street Shuffle
DYEAR=1973
DGENRE=Rock
TTITLE0=The E Street Shuffle 
TTITLE1=4th of July, Asbury Park (Sandy)
TTITLE2=Kitty's Back
TTITLE3=Wild Bill's Circus Story
TTITLE4=Incident on 57th Street
TTITLE5=Rosalita (Come Out Tonight)
TTITLE6=New York City Serenade
EXTD=YEAR: 1973
EXTT0=
EXTT1=
EXTT2=
EXTT3=
EXTT4=
EXTT5=
EXTT6=
PLAYORDER=
